<svg xmlns="http://www.w3.org/2000/svg" width="359" height="139" viewBox="0 0 359 139"><path fill="#FF3652" d="M359 139V0H0v139h359z"/><radialGradient id="a" cx="0" cy="600.85" r="149.79" gradientTransform="matrix(1 0 0 -.973 176.95 724.302)" gradientUnits="userSpaceOnUse"><stop offset="0" stop-color="#FF2C79"/><stop offset="1" stop-color="#FF2C79" stop-opacity="0"/></radialGradient><path fill="url(#a)" d="M359 139V0H0v139h359z"/><path fill="#FFF" d="M282.8 102.45c-.43-1.3-1.12-2.33-2.05-3.1-1-.77-2.17-1.15-3.5-1.15-1.67 0-3.07.63-4.2 1.9-1.1 1.2-1.65 2.65-1.65 4.35 0 1.67.55 3.12 1.65 4.35 1.13 1.23 2.53 1.85 4.2 1.85 1.3 0 2.45-.38 3.45-1.15.97-.77 1.67-1.78 2.1-3.05H281c-.8 1.67-2.05 2.5-3.75 2.5-1.17 0-2.15-.47-2.95-1.4-.83-.87-1.25-1.9-1.25-3.1 0-1.2.42-2.23 1.25-3.1.8-.97 1.78-1.45 2.95-1.45 1.8 0 3.03.85 3.7 2.55h1.85m32.25 4.55c0-1.07-.37-1.88-1.1-2.45-.53-.37-1.35-.7-2.45-1l-2.4-.6c-.7-.27-1.05-.7-1.05-1.3 0-1.17.82-1.75 2.45-1.75s2.45.77 2.45 2.3h1.75c0-1.3-.4-2.3-1.2-3-.73-.67-1.73-1-3-1-1.17 0-2.12.28-2.85.85-.9.6-1.35 1.47-1.35 2.6 0 1.27.55 2.17 1.65 2.7.43.2 1.48.48 3.15.85l1.15.35c.7.3 1.05.78 1.05 1.45 0 1.3-.92 1.95-2.75 1.95-.87 0-1.53-.2-2-.6-.53-.43-.8-1.07-.8-1.9h-1.8c0 1.3.43 2.35 1.3 3.15.87.7 1.97 1.05 3.3 1.05 1.27 0 2.3-.28 3.1-.85.93-.63 1.4-1.57 1.4-2.8M305 98.5h-8.55v11.95H305v-1.7h-6.8v-3.65h6.15v-1.7h-6.15v-3.2h6.8v-1.7m-11.2 0h-1.75v4.85h-5.9V98.5h-1.75v11.95h1.75v-5.4h5.9v5.4h1.75V98.5m-27.1 0h-1.8l-4.5 11.95h1.95l1.2-3.35H268l1.2 3.35h1.95L266.7 98.5m-.9 2.1l1.6 4.8h-3.25l1.65-4.8m-5.95-2.1h-8.55v11.95h8.55v-1.7H253v-3.65h6.15v-1.7H253v-3.2h6.85v-1.7m-103.2 0h-1.45v11.95h1.45V98.5m-4.15 0h-2.45l-3.25 9.45-3.3-9.45H141v11.95h1.8v-9.15l3.1 9.15h1.75l3.1-9.15v9.15h1.75V98.5m-17.15 0h-1.8l-4.5 11.95h1.9l1.25-3.35h4.45l1.2 3.35h1.95l-4.45-11.95m-.9 2.1l1.6 4.8h-3.3l1.7-4.8m-6.7-2.1h-1.45v11.95h1.45V98.5m-13.15 0h-2.45v11.95h1.75v-9.15l3.1 9.15h1.75l3.1-9.15v9.15h1.75V98.5h-2.4l-3.3 9.45-3.3-9.45m-13.35 0H96v11.95h1.7v-4.55h3.6c.7 0 1.17.17 1.4.5.23.3.35.8.35 1.5 0 1.3.08 2.15.25 2.55h1.8c-.13-.4-.22-.88-.25-1.45 0-.67-.03-1.17-.1-1.5-.07-1.2-.43-2.03-1.1-2.5.97-.63 1.45-1.57 1.45-2.8 0-1.13-.37-2.03-1.1-2.7s-1.65-1-2.75-1m0 1.7c1.4 0 2.1.67 2.1 2 0 1.3-.68 1.95-2.05 1.95h-3.6v-3.95h3.55m-7.2-1.7h-8.6v11.95h8.6v-1.7H87.2v-3.65h6.15v-1.7H87.2v-3.2h6.85v-1.7m154.25 11c.7-.7 1.05-1.57 1.05-2.6 0-1.3-.52-2.22-1.55-2.75.83-.57 1.25-1.35 1.25-2.35 0-1.03-.33-1.85-1-2.45-.63-.57-1.47-.85-2.5-.85h-5.1v11.95h5.15c1.1 0 2-.32 2.7-.95m-6.1-.75v-3.65h3.4c1.33 0 2 .6 2 1.8 0 .57-.18 1.02-.55 1.35s-.83.5-1.4.5h-3.45m0-5.35v-3.2h3.35c1.17 0 1.75.53 1.75 1.6s-.57 1.6-1.7 1.6h-3.4m-8.6-4.9h-8.55v11.95h8.55v-1.7h-6.8v-3.65h6.15v-1.7h-6.15v-3.2h6.8v-1.7m-18.85 0H213v11.95h1.75v-5.4h5.9v5.4h1.75V98.5h-1.75v4.85h-5.9V98.5m-3.3 0h-8.95v1.7h3.6v10.25h1.75V100.2h3.6v-1.7m-20.05 0h-4.45v11.95h4.45c1.73 0 3.1-.57 4.1-1.7.87-1.1 1.3-2.53 1.3-4.3 0-1.73-.43-3.15-1.3-4.25-1-1.13-2.37-1.7-4.1-1.7m3.65 5.95c0 1.27-.28 2.27-.85 3-.63.87-1.57 1.3-2.8 1.3h-2.65v-8.55h2.65c1.23 0 2.17.42 2.8 1.25.57.73.85 1.73.85 3m-10.7-5.95h-1.75v9.25l-5.9-9.25h-1.85v11.95h1.75v-9.4l5.9 9.4h1.85V98.5m-15.15 0h-1.8l-4.5 11.95h1.9l1.2-3.35h4.45l1.2 3.35h2L169.2 98.5m-.9 2.1l1.55 4.8h-3.25l1.7-4.8m-89.65 9.85h1.65V100.2h3.65v-1.7H75v1.7h3.65v10.25M71.5 98.5h-1.85l-4.5 11.95h1.9l1.2-3.35h4.45l1.2 3.35h2L71.5 98.5m-2.6 6.9l1.65-4.8 1.55 4.8h-3.2m-4.35-6.9h-8.5v11.95h8.5v-1.7H57.8v-3.65h6.1v-1.7h-6.1v-3.2h6.75v-1.7M50 98.5h-5.25v11.95h1.75v-4.55h3.6c.67 0 1.15.17 1.45.5.2.3.3.8.3 1.5 0 1.33.07 2.18.2 2.55h1.8c-.13-.4-.22-.88-.25-1.45 0-.67-.02-1.17-.05-1.5-.07-1.2-.42-2.03-1.05-2.5.93-.63 1.4-1.57 1.4-2.8 0-1.13-.37-2.03-1.1-2.7-.7-.67-1.63-1-2.8-1m2.15 3.7c0 .63-.18 1.12-.55 1.45-.4.33-.92.5-1.55.5H46.5v-3.95H50c1.43 0 2.15.67 2.15 2m-11.65.25h1.9c-.47-1.3-1.18-2.33-2.15-3.1s-2.12-1.15-3.45-1.15c-1.63 0-3.03.62-4.2 1.85-1.17 1.23-1.75 2.7-1.75 4.4 0 1.67.57 3.12 1.7 4.35 1.17 1.23 2.58 1.85 4.25 1.85 1.73 0 3.1-.6 4.1-1.8v1.6h1.7v-6.65h-5.9v1.7h4.15c-.17 1.03-.63 1.87-1.4 2.5-.73.63-1.62.95-2.65.95-1.2 0-2.2-.47-3-1.4-.8-.87-1.2-1.9-1.2-3.1 0-1.2.4-2.23 1.2-3.1.8-.93 1.8-1.4 3-1.4 1.67 0 2.9.83 3.7 2.5m263.9-77.7c.2-.23.38-.32.55-.25.1.03.15.17.15.4v63.05h2.4V24.9c0-.8-.25-1.48-.75-2.05-.47-.53-1.15-.8-2.05-.8-.87 0-1.6.4-2.2 1.2l-44.55 60.1v-58.1c0-1.07-.25-1.87-.75-2.4-.53-.53-1.2-.8-2-.8-.93 0-1.7.4-2.3 1.2L205 87.95h3.2l46.65-63.2c.43-.47.65-.42.65.15v63.05h2.2l46.7-63.2m-176.75-1.5h.05l-44.65 60.1.1-58.1c0-1.03-.27-1.83-.8-2.4-.47-.53-1.15-.8-2.05-.8-.93 0-1.67.42-2.2 1.25L30.15 87.95h3.25l46.65-63.2c.2-.23.37-.32.5-.25.1.03.15.17.15.4v63.05h2.2l46.7-63.2c.17-.23.32-.32.45-.25.13.03.2.17.2.4v63.05h2.4V24.9c0-.83-.25-1.52-.75-2.05-.5-.53-1.17-.8-2-.8-.9 0-1.65.4-2.25 1.2m70.75-1.2c-.97 0-1.72.4-2.25 1.2l-47.95 64.7h3.25l11.8-16.05h35.5v16.05h2.45v-62.7c0-1.03-.25-1.83-.75-2.4-.53-.53-1.22-.8-2.05-.8m-.25 2.7c.4-.47.6-.42.6.15v44.55H165.1l33.05-44.7m-55.2-2.45h-2.45v65.65h2.45V22.3m175.15 0h-2.45v65.65h2.45V22.3m7.3 61.95h-.95v3.8h.65V85.1l1.05 2.95h.6l1.05-2.95v2.95h.65v-3.8h-1l-1 3-1.05-3m-2 0h-1.9v.55h.65v3.25h.6V84.8h.65v-.55z"/></svg>